<svg width="24" height="24" viewBox="0 0 24 24" fill="none" xmlns="http://www.w3.org/2000/svg">
<path d="M5.99998 6.00001C5.99998 5.68175 6.1264 5.37652 6.35145 5.15148C6.57649 4.92643 6.88172 4.80001 7.19998 4.80001C7.51824 4.80001 7.82346 4.92643 8.0485 5.15148C8.27355 5.37652 8.39998 5.68175 8.39998 6.00001V12.0564C8.78558 12.1004 9.18558 12.1764 9.59998 12.2844V10.8H15.6V14.4036C16.0404 14.4096 16.4424 14.3652 16.8 14.2956V6.00001C16.8 5.36349 16.5471 4.75304 16.097 4.30295C15.6469 3.85286 15.0365 3.60001 14.4 3.60001C13.7635 3.60001 13.153 3.85286 12.7029 4.30295C12.2528 4.75304 12 5.36349 12 6.00001V6.60001C12 6.75914 12.0632 6.91175 12.1757 7.02427C12.2882 7.13679 12.4408 7.20001 12.6 7.20001C12.7591 7.20001 12.9117 7.13679 13.0242 7.02427C13.1368 6.91175 13.2 6.75914 13.2 6.60001V6.00001C13.2 5.68175 13.3264 5.37652 13.5514 5.15148C13.7765 4.92643 14.0817 4.80001 14.4 4.80001C14.7182 4.80001 15.0235 4.92643 15.2485 5.15148C15.4735 5.37652 15.6 5.68175 15.6 6.00001V9.60001H9.59998V6.00001C9.59998 5.36349 9.34712 4.75304 8.89703 4.30295C8.44694 3.85286 7.8365 3.60001 7.19998 3.60001C6.56346 3.60001 5.95301 3.85286 5.50292 4.30295C5.05283 4.75304 4.79998 5.36349 4.79998 6.00001V6.60001C4.79998 6.75914 4.86319 6.91175 4.97571 7.02427C5.08823 7.13679 5.24085 7.20001 5.39998 7.20001C5.55911 7.20001 5.71172 7.13679 5.82424 7.02427C5.93676 6.91175 5.99998 6.75914 5.99998 6.60001V6.00001ZM15.69 16.8C14.358 16.8 12.7872 16.4784 11.0964 15.504C6.99478 13.1388 4.71598 15.3264 4.63198 15.4092C4.51824 15.5208 4.36528 15.5832 4.20598 15.5832C4.04667 15.5832 3.89371 15.5208 3.77998 15.4092C3.72328 15.3558 3.6781 15.2914 3.64722 15.2199C3.61634 15.1484 3.60041 15.0713 3.60041 14.9934C3.60041 14.9155 3.61634 14.8385 3.64722 14.7669C3.6781 14.6954 3.72328 14.631 3.77998 14.5776C3.90718 14.4504 6.76198 11.622 11.7084 14.4576C16.002 16.9308 19.3128 14.6016 19.4448 14.5056C19.5746 14.4145 19.7347 14.3773 19.8914 14.4019C20.0481 14.4265 20.1892 14.511 20.2848 14.6376C20.4768 14.898 20.4288 15.2664 20.1528 15.4692C20.0448 15.552 18.3048 16.7892 15.69 16.7892V16.8ZM11.0964 19.104C12.7884 20.0796 14.3592 20.4 15.69 20.4V20.388C18.306 20.388 20.0436 19.152 20.1516 19.068C20.2157 19.0227 20.27 18.965 20.3115 18.8984C20.3529 18.8318 20.3806 18.7575 20.3929 18.68C20.4052 18.6025 20.4019 18.5234 20.3831 18.4472C20.3643 18.371 20.3305 18.2993 20.2836 18.2364C20.1878 18.11 20.0467 18.0258 19.89 18.0014C19.7333 17.977 19.5733 18.0143 19.4436 18.1056C19.3116 18.2016 16.002 20.5308 11.7084 18.0576C6.76198 15.222 3.90838 18.0504 3.77998 18.1776C3.53998 18.402 3.53998 18.7836 3.77998 19.0092C4.01998 19.2468 4.40398 19.2348 4.63198 19.0092C4.71598 18.9252 6.99478 16.7376 11.0964 19.104Z" fill="black"/>
</svg>
