<svg width="24" height="24" viewBox="0 0 24 24" fill="none" xmlns="http://www.w3.org/2000/svg">
<path d="M6 10.5H12V5.616C12 5.462 11.936 5.32067 11.808 5.192C11.68 5.06333 11.539 4.99933 11.385 5H6.615C6.46167 5 6.32067 5.064 6.192 5.192C6.06333 5.32 5.99933 5.46133 6 5.616V10.5ZM6 19H12V11.5H6V19ZM12.2 20H5.8C5.57333 20 5.38333 19.9227 5.23 19.768C5.07667 19.6133 5 19.4213 5 19.192V5.616C5 5.15533 5.15433 4.771 5.463 4.463C5.77167 4.155 6.156 4.00067 6.616 4H11.385C11.845 4 12.2293 4.15433 12.538 4.463C12.8467 4.77167 13.0007 5.156 13 5.616V11.616H13.98C14.4107 11.616 14.778 11.768 15.082 12.072C15.386 12.376 15.5383 12.743 15.539 13.173V17.779C15.539 18.139 15.6843 18.4517 15.975 18.717C16.2663 18.983 16.597 19.116 16.967 19.116C17.3597 19.116 17.6973 18.983 17.98 18.717C18.2627 18.4517 18.404 18.139 18.404 17.779V8.885H18.058C17.8293 8.885 17.6373 8.80767 17.482 8.653C17.3273 8.49767 17.25 8.30567 17.25 8.077V6.894C17.25 6.78933 17.2903 6.69733 17.371 6.618C17.4517 6.53933 17.546 6.5 17.654 6.5V5.77C17.654 5.66733 17.6923 5.57733 17.769 5.5C17.8463 5.42333 17.9363 5.385 18.039 5.385C18.141 5.385 18.2307 5.42333 18.308 5.5C18.3847 5.57733 18.423 5.66733 18.423 5.77V6.5H19.269V5.77C19.269 5.66667 19.3077 5.57667 19.385 5.5C19.4617 5.42333 19.5513 5.385 19.654 5.385C19.7567 5.385 19.8463 5.42333 19.923 5.5C20.0003 5.57733 20.039 5.66733 20.039 5.77V6.5C20.1463 6.5 20.2403 6.53933 20.321 6.618C20.4017 6.69667 20.442 6.78867 20.442 6.894V8.077C20.442 8.30567 20.3647 8.49767 20.21 8.653C20.0553 8.807 19.8637 8.884 19.635 8.884H19.288V17.779C19.288 18.389 19.0643 18.9117 18.617 19.347C18.1697 19.7823 17.623 20 16.977 20C16.3463 20 15.8013 19.7823 15.342 19.347C14.8833 18.9117 14.654 18.389 14.654 17.779V13.173C14.654 12.9743 14.5913 12.8123 14.466 12.687C14.3407 12.5617 14.179 12.4993 13.981 12.5H13V19.192C13 19.4213 12.9233 19.6133 12.77 19.768C12.6167 19.9227 12.4267 20 12.2 20ZM8.654 18.116L10.423 14.885H9.366V12.365L7.577 15.596H8.654V18.116Z" fill="black"/>
</svg>
