<svg width="24" height="24" viewBox="0 0 24 24" fill="none" xmlns="http://www.w3.org/2000/svg">
<path d="M22.3667 5.46667C19.2886 3.43211 15.6783 2.35181 11.9886 2.3613C8.29895 2.37079 4.69423 3.46964 1.62669 5.52C1.55402 5.56903 1.49173 5.63189 1.44336 5.70499C1.39498 5.77809 1.36148 5.86001 1.34477 5.94605C1.31101 6.11984 1.34767 6.29991 1.44669 6.44667C1.5457 6.59342 1.69896 6.69483 1.87274 6.72859C2.04653 6.76234 2.2266 6.72568 2.37336 6.62667C5.22277 4.72431 8.57023 3.70514 11.9963 3.69683C15.4224 3.68853 18.7748 4.69147 21.6334 6.58C21.781 6.67377 21.9596 6.70577 22.1306 6.6691C22.3016 6.63243 22.4513 6.53003 22.5475 6.38397C22.6437 6.23791 22.6787 6.0599 22.6449 5.8883C22.611 5.71671 22.5111 5.56528 22.3667 5.46667Z" fill="black"/>
<path d="M12.0333 7.14668C9.21814 7.14318 6.46897 7.9991 4.15331 9.60001C4.04843 9.71201 3.9854 9.85676 3.97485 10.0098C3.96429 10.1629 4.00687 10.3149 4.09538 10.4403C4.1839 10.5656 4.31294 10.6566 4.46073 10.6978C4.60852 10.7391 4.76602 10.7281 4.90664 10.6667C6.99621 9.23782 9.46859 8.47333 12 8.47333C14.5314 8.47333 17.0037 9.23782 19.0933 10.6667C19.2391 10.7502 19.4111 10.7756 19.5748 10.7378C19.7385 10.6999 19.8819 10.6017 19.9763 10.4626C20.0707 10.3236 20.1091 10.1541 20.0838 9.98793C20.0585 9.8218 19.9714 9.67135 19.84 9.56668C17.5409 7.99214 14.8199 7.14865 12.0333 7.14668Z" fill="black"/>
<path d="M12.0333 11.9333C10.1133 11.9361 8.24448 12.5528 6.69995 13.6933C6.56964 13.8019 6.48563 13.9561 6.46502 14.1245C6.44442 14.2929 6.48877 14.4628 6.58904 14.5996C6.68932 14.7364 6.83797 14.8298 7.00473 14.8609C7.1715 14.8919 7.34382 14.8582 7.48661 14.7667C8.79953 13.7976 10.3861 13.2703 12.0179 13.2608C13.6497 13.2512 15.2424 13.7598 16.5666 14.7133C16.6356 14.7798 16.7181 14.8306 16.8084 14.8623C16.8988 14.8941 16.995 14.9059 17.0903 14.8972C17.1857 14.8884 17.2781 14.8591 17.3612 14.8115C17.4442 14.7638 17.516 14.6987 17.5717 14.6208C17.6274 14.5429 17.6656 14.4538 17.6838 14.3598C17.7019 14.2657 17.6996 14.1689 17.677 14.0758C17.6544 13.9828 17.612 13.8956 17.5527 13.8204C17.4933 13.7452 17.4185 13.6837 17.3333 13.64C15.791 12.526 13.9358 11.9286 12.0333 11.9333Z" fill="black"/>
<path d="M12 16.28C11.4726 16.28 10.9571 16.4364 10.5185 16.7294C10.08 17.0224 9.7382 17.4389 9.53636 17.9262C9.33453 18.4134 9.28172 18.9496 9.38461 19.4669C9.48751 19.9842 9.74148 20.4593 10.1144 20.8323C10.4874 21.2052 10.9625 21.4592 11.4798 21.5621C11.9971 21.665 12.5333 21.6122 13.0205 21.4103C13.5078 21.2085 13.9243 20.8667 14.2173 20.4282C14.5103 19.9897 14.6667 19.4741 14.6667 18.9467C14.6667 18.2394 14.3858 17.5611 13.8857 17.061C13.3856 16.561 12.7073 16.28 12 16.28ZM12 20.28C11.7363 20.28 11.4785 20.2018 11.2593 20.0553C11.04 19.9088 10.8691 19.7005 10.7682 19.4569C10.6673 19.2133 10.6409 18.9452 10.6923 18.6865C10.7438 18.4279 10.8708 18.1903 11.0572 18.0039C11.2437 17.8174 11.4813 17.6904 11.7399 17.639C11.9986 17.5875 12.2667 17.6139 12.5103 17.7148C12.7539 17.8157 12.9622 17.9866 13.1087 18.2059C13.2552 18.4252 13.3334 18.683 13.3334 18.9467C13.3334 19.3003 13.1929 19.6394 12.9429 19.8895C12.6928 20.1395 12.3537 20.28 12 20.28Z" fill="black"/>
</svg>
