<svg width="24" height="24" viewBox="0 0 24 24" fill="none" xmlns="http://www.w3.org/2000/svg">
<path d="M4.07492 3.42856C3.44976 3.42856 2.85021 3.6769 2.40816 4.11895C1.96611 4.561 1.71777 5.16055 1.71777 5.7857V17.3571C1.71777 18.2096 2.05642 19.0272 2.65922 19.63C3.26201 20.2328 4.07958 20.5714 4.93206 20.5714H8.78577C9.63826 20.5714 10.4558 20.2328 11.0586 19.63C11.6614 19.0272 12.0001 18.2096 12.0001 17.3571V8.99999H21.0001V19.9286C21.0001 20.0991 21.0678 20.2626 21.1883 20.3831C21.3089 20.5037 21.4724 20.5714 21.6429 20.5714C21.8134 20.5714 21.9769 20.5037 22.0975 20.3831C22.218 20.2626 22.2858 20.0991 22.2858 19.9286V5.7857C22.2858 5.16055 22.0374 4.561 21.5954 4.11895C21.1533 3.6769 20.5538 3.42856 19.9286 3.42856H4.07492ZM3.00349 8.99999H10.7143V17.3571C10.7143 17.8686 10.5112 18.3592 10.1495 18.7208C9.7878 19.0825 9.29726 19.2857 8.78577 19.2857H4.93206C4.42057 19.2857 3.93003 19.0825 3.56835 18.7208C3.20668 18.3592 3.00349 17.8686 3.00349 17.3571V8.99999ZM3.00349 7.71427V5.7857C3.00349 5.19427 3.48349 4.71427 4.07492 4.71427H19.9286C20.5201 4.71427 21.0001 5.19427 21.0001 5.7857V7.71427H3.00349ZM5.3572 11.1428C5.18671 11.1428 5.02319 11.2106 4.90263 11.3311C4.78207 11.4517 4.71434 11.6152 4.71434 11.7857C4.71434 11.9562 4.78207 12.1197 4.90263 12.2403C5.02319 12.3608 5.18671 12.4286 5.3572 12.4286H8.3572C8.5277 12.4286 8.69121 12.3608 8.81177 12.2403C8.93233 12.1197 9.00006 11.9562 9.00006 11.7857C9.00006 11.6152 8.93233 11.4517 8.81177 11.3311C8.69121 11.2106 8.5277 11.1428 8.3572 11.1428H5.3572Z" fill="black"/>
</svg>
