<svg width="24" height="24" viewBox="0 0 24 24" fill="none" xmlns="http://www.w3.org/2000/svg">
<path d="M18.5625 8.25C18.5625 7.69374 18.3976 7.14997 18.0885 6.68746C17.7795 6.22495 17.3402 5.86446 16.8263 5.65159C16.3124 5.43872 15.7469 5.38302 15.2013 5.49154C14.6557 5.60006 14.1546 5.86793 13.7613 6.26126C13.3679 6.6546 13.1001 7.15574 12.9915 7.70131C12.883 8.24688 12.9387 8.81238 13.1516 9.3263C13.3645 9.84021 13.7249 10.2795 14.1875 10.5885C14.65 10.8975 15.1937 11.0625 15.75 11.0625C16.4959 11.0625 17.2113 10.7662 17.7387 10.2387C18.2662 9.71129 18.5625 8.99592 18.5625 8.25ZM15.75 9.9375C15.4162 9.9375 15.09 9.83853 14.8125 9.6531C14.535 9.46768 14.3187 9.20413 14.191 8.89578C14.0632 8.58743 14.0298 8.24813 14.0949 7.92078C14.16 7.59344 14.3208 7.29276 14.5568 7.05676C14.7928 6.82076 15.0934 6.66004 15.4208 6.59492C15.7481 6.52981 16.0874 6.56323 16.3958 6.69095C16.7041 6.81868 16.9677 7.03497 17.1531 7.31248C17.3385 7.58998 17.4375 7.91624 17.4375 8.25C17.4375 8.69755 17.2597 9.12677 16.9432 9.44324C16.6268 9.75971 16.1976 9.9375 15.75 9.9375ZM15.2672 20.0625C15.5191 20.0624 15.7657 19.9897 15.9775 19.8533C16.1893 19.7168 16.3574 19.5222 16.4616 19.2928L19.4428 12.7359C20.3666 11.9748 21.0329 10.9469 21.3506 9.79289C21.6684 8.63883 21.6221 7.41482 21.218 6.28807C20.814 5.16132 20.072 4.18679 19.0933 3.4976C18.1146 2.80841 16.947 2.43819 15.75 2.4375C15.7186 2.43762 15.6873 2.44013 15.6562 2.445L2.78438 4.59375C2.47835 4.64472 2.20028 4.80244 1.99949 5.03893C1.79869 5.27542 1.68816 5.57539 1.6875 5.88562V10.6144C1.68816 10.9246 1.79869 11.2246 1.99949 11.4611C2.20028 11.6976 2.47835 11.8553 2.78438 11.9062L12.1875 13.4766V18.75C12.1875 19.0981 12.3258 19.4319 12.5719 19.6781C12.8181 19.9242 13.1519 20.0625 13.5 20.0625H13.6875V20.25C13.6875 21.1948 14.0628 22.101 14.7309 22.7691C15.399 23.4372 16.3052 23.8125 17.25 23.8125H18.75C18.8992 23.8125 19.0423 23.7532 19.1477 23.6477C19.2532 23.5423 19.3125 23.3992 19.3125 23.25C19.3125 23.1008 19.2532 22.9577 19.1477 22.8523C19.0423 22.7468 18.8992 22.6875 18.75 22.6875H17.25C16.6035 22.6875 15.9835 22.4307 15.5264 21.9736C15.0693 21.5165 14.8125 20.8965 14.8125 20.25V20.0625H15.2672ZM2.8125 10.6144V5.88562C2.81189 5.84082 2.82734 5.79728 2.85606 5.76288C2.88478 5.72849 2.92487 5.70551 2.96906 5.69812L15.795 3.5625C17.0382 3.5625 18.2305 4.05636 19.1096 4.93544C19.9886 5.81451 20.4825 7.0068 20.4825 8.25C20.4825 9.4932 19.9886 10.6855 19.1096 11.5646C18.2305 12.4436 17.0382 12.9375 15.795 12.9375L2.96906 10.8C2.92519 10.7927 2.88535 10.77 2.85667 10.736C2.82799 10.702 2.81234 10.6589 2.8125 10.6144ZM13.3125 18.75V13.6641L15.6562 14.055C15.6873 14.0599 15.7186 14.0624 15.75 14.0625C16.439 14.0628 17.1225 13.9403 17.7684 13.7006L15.4378 18.8278C15.4229 18.8605 15.3989 18.8883 15.3686 18.9077C15.3384 18.9272 15.3032 18.9375 15.2672 18.9375H13.5C13.4503 18.9375 13.4026 18.9177 13.3674 18.8826C13.3323 18.8474 13.3125 18.7997 13.3125 18.75Z" fill="black"/>
</svg>
