<svg width="24" height="24" viewBox="0 0 24 24" fill="none" xmlns="http://www.w3.org/2000/svg">
<path d="M3.664 16.986L3 13H21L20.336 16.986C19.936 19.381 19.737 20.578 18.898 21.289C18.058 22 16.845 22 14.418 22H9.582C7.154 22 5.94 22 5.102 21.29C4.262 20.578 4.063 19.38 3.664 16.986Z" stroke="black" stroke-width="1.5" stroke-linecap="round" stroke-linejoin="round"/>
<path d="M18.6 10C18.8568 9.73038 19 9.37233 19 9C19 8.62767 18.8568 8.26962 18.6 8C18.3432 7.73038 18.2 7.37233 18.2 7C18.2 6.62767 18.3432 6.26962 18.6 6M15.4 10C15.6568 9.73038 15.8 9.37233 15.8 9C15.8 8.62767 15.6568 8.26962 15.4 8C15.1432 7.73038 15 7.37233 15 7C15 6.62767 15.1432 6.26962 15.4 6" stroke="black" stroke-width="1.5" stroke-linecap="round"/>
<path d="M3 13H2M21 13H22M5 13V9.851C5 8.83 5.829 8 6.851 8C8.18 8 9.407 8.712 10.066 9.866L13 15M9 4C9 4.53043 8.78929 5.03914 8.41421 5.41421C8.03914 5.78929 7.53043 6 7 6C6.46957 6 5.96086 5.78929 5.58579 5.41421C5.21071 5.03914 5 4.53043 5 4C5 3.46957 5.21071 2.96086 5.58579 2.58579C5.96086 2.21071 6.46957 2 7 2C7.53043 2 8.03914 2.21071 8.41421 2.58579C8.78929 2.96086 9 3.46957 9 4Z" stroke="black" stroke-width="1.5" stroke-linecap="round" stroke-linejoin="round"/>
</svg>
