<svg width="24" height="24" viewBox="0 0 24 24" fill="none" xmlns="http://www.w3.org/2000/svg">
<path d="M3 12.61C3 12.1627 3.15733 11.7827 3.472 11.47C3.78667 11.1567 4.168 11 4.616 11H5V8.615C5 8.16833 5.15733 7.78733 5.472 7.472C5.78667 7.15733 6.168 7 6.616 7H17.385C17.8317 7 18.2127 7.15733 18.528 7.472C18.8427 7.78667 19 8.16767 19 8.615V11H19.385C19.8317 11 20.2127 11.1573 20.528 11.472C20.8427 11.7867 21 12.168 21 12.616V15.15C21 15.3793 20.9157 15.5783 20.747 15.747C20.5783 15.9157 20.3793 16 20.15 16L19.812 17.79C19.7913 17.852 19.7587 17.9023 19.714 17.941C19.6687 17.9803 19.6153 18 19.554 18H19.446C19.3847 18 19.3313 17.9803 19.286 17.941C19.2413 17.9023 19.209 17.8523 19.189 17.791L18.85 16H5.15L4.812 17.79C4.79133 17.852 4.75867 17.9023 4.714 17.941C4.66867 17.9803 4.61533 18 4.554 18H4.446C4.38467 18 4.33133 17.9803 4.286 17.941C4.24133 17.9023 4.209 17.8523 4.189 17.791L3.85 16C3.62067 16 3.42167 15.9157 3.253 15.747C3.08433 15.5783 3 15.3793 3 15.15V12.61ZM12.5 11H18V8.615C18 8.43567 17.9423 8.28833 17.827 8.173C17.7117 8.05767 17.5643 8 17.385 8H12.5V11ZM6 11H11.5V8H6.616C6.436 8 6.28833 8.05767 6.173 8.173C6.05767 8.28833 6 8.43567 6 8.615V11ZM4 15H20V12.616C20 12.436 19.9423 12.2883 19.827 12.173C19.7117 12.0577 19.5643 12 19.385 12H4.615C4.43567 12 4.28833 12.0577 4.173 12.173C4.05767 12.2883 4 12.436 4 12.616V15Z" fill="black"/>
</svg>
