<svg width="24" height="24" viewBox="0 0 24 24" fill="none" xmlns="http://www.w3.org/2000/svg">
<path d="M8.692 8C8.55 8 8.43133 7.952 8.336 7.856C8.24067 7.76 8.19267 7.64133 8.192 7.5V5.884C8.192 5.74267 8.24 5.624 8.336 5.528C8.432 5.432 8.551 5.38433 8.693 5.385C8.835 5.38567 8.95367 5.43333 9.049 5.528C9.14433 5.62267 9.192 5.74167 9.192 5.885V7.5C9.192 7.642 9.144 7.76067 9.048 7.856C8.952 7.952 8.83333 8 8.692 8ZM8.692 16.116C8.55 16.116 8.431 16.068 8.335 15.972C8.239 15.876 8.19133 15.7573 8.192 15.616V12.269C8.192 12.1277 8.24 12.009 8.336 11.913C8.432 11.817 8.551 11.769 8.693 11.769C8.835 11.769 8.95367 11.817 9.049 11.913C9.14433 12.009 9.192 12.1277 9.192 12.269V15.615C9.192 15.757 9.144 15.876 9.048 15.972C8.952 16.0673 8.83333 16.116 8.692 16.116ZM6.616 21C6.17133 21 5.791 20.8417 5.475 20.525C5.159 20.2083 5.00067 19.8287 5 19.386V4.615C5 4.171 5.15833 3.791 5.475 3.475C5.79167 3.159 6.17167 3.00067 6.615 3H17.385C17.829 3 18.209 3.15833 18.525 3.475C18.841 3.79167 18.9993 4.17167 19 4.615V19.385C19 19.829 18.8417 20.209 18.525 20.525C18.2083 20.841 17.8283 20.9993 17.385 21H6.616ZM6.616 20H17.385C17.5643 20 17.7117 19.9423 17.827 19.827C17.9423 19.7117 18 19.5643 18 19.385V10.385H6V19.385C6 19.5643 6.05767 19.7117 6.173 19.827C6.28833 19.9423 6.436 20 6.616 20ZM6 9.385H18V4.615C18 4.43567 17.9423 4.28833 17.827 4.173C17.7117 4.05767 17.5643 4 17.385 4H6.615C6.43567 4 6.28833 4.05767 6.173 4.173C6.05767 4.28833 6 4.436 6 4.616V9.385Z" fill="black"/>
</svg>
