<svg width="24" height="24" viewBox="0 0 24 24" fill="none" xmlns="http://www.w3.org/2000/svg">
<path d="M12 8C9.1005 8 6.75 10.3505 6.75 13.25C6.75 16.1495 9.1005 18.5 12 18.5C14.8995 18.5 17.25 16.1495 17.25 13.25C17.25 10.3505 14.8995 8 12 8ZM8 13.25C7.99926 12.2458 8.37628 11.278 9.05617 10.5389C9.73607 9.79985 10.6691 9.34356 11.6699 9.26068C12.6707 9.17781 13.6661 9.47441 14.4583 10.0916C15.2505 10.7088 15.7815 11.6013 15.946 12.592L15.9345 12.6045C15.7035 12.8525 15.4645 13.1095 15.0245 13.299C14.4925 13.529 13.615 13.6655 12.101 13.287C10.411 12.8645 9.2725 13.116 8.476 13.6095C8.32823 13.7012 8.18751 13.8038 8.055 13.9165C8.01809 13.6963 7.9997 13.4733 8 13.25ZM9 6.125C9 6.39022 8.89464 6.64457 8.70711 6.83211C8.51957 7.01964 8.26522 7.125 8 7.125C7.73478 7.125 7.48043 7.01964 7.29289 6.83211C7.10536 6.64457 7 6.39022 7 6.125C7 5.85978 7.10536 5.60543 7.29289 5.41789C7.48043 5.23036 7.73478 5.125 8 5.125C8.26522 5.125 8.51957 5.23036 8.70711 5.41789C8.89464 5.60543 9 5.85978 9 6.125ZM12.625 5.5C12.4592 5.5 12.3003 5.56585 12.1831 5.68306C12.0658 5.80027 12 5.95924 12 6.125C12 6.29076 12.0658 6.44973 12.1831 6.56694C12.3003 6.68415 12.4592 6.75 12.625 6.75H16.375C16.5408 6.75 16.6997 6.68415 16.8169 6.56694C16.9342 6.44973 17 6.29076 17 6.125C17 5.95924 16.9342 5.80027 16.8169 5.68306C16.6997 5.56585 16.5408 5.5 16.375 5.5H12.625ZM6.125 3C5.2962 3 4.50134 3.32924 3.91529 3.91529C3.32924 4.50134 3 5.2962 3 6.125V17.875C3 18.7038 3.32924 19.4987 3.91529 20.0847C4.50134 20.6708 5.2962 21 6.125 21H17.875C18.7038 21 19.4987 20.6708 20.0847 20.0847C20.6708 19.4987 21 18.7038 21 17.875V6.125C21 5.2962 20.6708 4.50134 20.0847 3.91529C19.4987 3.32924 18.7038 3 17.875 3H6.125ZM4.25 6.125C4.25 5.62772 4.44754 5.15081 4.79917 4.79917C5.15081 4.44754 5.62772 4.25 6.125 4.25H17.875C18.3723 4.25 18.8492 4.44754 19.2008 4.79917C19.5525 5.15081 19.75 5.62772 19.75 6.125V17.875C19.75 18.3723 19.5525 18.8492 19.2008 19.2008C18.8492 19.5525 18.3723 19.75 17.875 19.75H6.125C5.62772 19.75 5.15081 19.5525 4.79917 19.2008C4.44754 18.8492 4.25 18.3723 4.25 17.875V6.125Z" fill="black"/>
</svg>
